<svg width="230" height="221" viewBox="0 0 230 221" fill="none" xmlns="http://www.w3.org/2000/svg">
<path d="M60.8989 217.065L84.2093 93.8021L84.5322 39.6207L65.2655 32.9097L61.7144 39.8077L57.5009 49.1861C54.1368 56.6787 53.4913 65.1058 55.7 73.0062L57.8746 80.8048L-1.04688 217.048H60.8989V217.065Z" fill="white"/>
<path d="M-1.04781 218.034C-1.16674 218.034 -1.30261 218 -1.42154 217.949C-1.91425 217.745 -2.13519 217.167 -1.91432 216.691L56.8883 80.7538L54.7986 73.2951C52.5389 65.1909 53.1845 56.4919 56.6334 48.8294L60.8469 39.4508L64.415 32.5019C64.6359 32.0772 65.1285 31.8732 65.5872 32.0262L84.8539 38.7374C85.2447 38.8733 85.4996 39.2469 85.4996 39.6547L85.1769 93.8361C85.1769 93.8871 85.1768 93.955 85.1599 94.006L61.8495 217.269C61.7476 217.796 61.2548 218.135 60.7281 218.034C60.2014 217.932 59.8615 217.439 59.9634 216.912L83.257 93.7513L83.5797 40.3513L65.7571 34.1499L62.597 40.3003L58.4005 49.6279C55.1384 56.8996 54.5097 65.1228 56.6504 72.8024L58.8252 80.6007C58.8932 80.8046 58.8761 81.0425 58.7742 81.2464L-0.147283 217.49C-0.334174 217.813 -0.691015 218.034 -1.04781 218.034Z" fill="#06163D"/>
<path d="M166.969 217.066L143.659 93.8031L143.336 39.6216L162.603 32.9106L166.154 39.8087L170.367 49.1871C173.731 56.6797 174.377 65.1068 172.168 73.0072L169.993 80.8058L228.915 217.049H166.969V217.066Z" fill="white"/>
<path d="M228.931 218.034C228.557 218.034 228.2 217.813 228.047 217.456L169.126 81.2128C169.041 81.0089 169.024 80.7881 169.075 80.5672L171.25 72.7686C173.39 65.0891 172.779 56.8658 169.5 49.5941L165.286 40.2157L162.143 34.0991L144.32 40.3006L144.643 93.7005L167.937 216.862C168.038 217.388 167.699 217.881 167.172 217.983C166.645 218.085 166.153 217.745 166.051 217.218L142.74 93.9554C142.723 93.9044 142.723 93.8363 142.723 93.7853L142.4 39.6041C142.4 39.1964 142.655 38.8225 143.046 38.6866L162.313 31.9754C162.772 31.8225 163.264 32.0264 163.485 32.4511L167.036 39.3492L171.284 48.7786C174.733 56.4581 175.395 65.1401 173.119 73.2444L171.029 80.703L229.832 216.641C230.035 217.133 229.814 217.694 229.339 217.898C229.186 218 229.05 218.034 228.931 218.034Z" fill="#06163D"/>
<path d="M147.243 95.7039L82.3751 96.4856C74.1349 96.5875 67.3729 89.9953 67.2709 81.7551L66.4894 16.8869C66.3875 8.64666 72.9795 1.88479 81.2197 1.78285L146.088 1.00117C154.328 0.899226 161.09 7.49145 161.192 15.7316L161.974 80.5997C162.076 88.8399 155.484 95.6019 147.243 95.7039Z" fill="white" stroke="#080717" stroke-width="1.6955" stroke-miterlimit="10"/>
<path d="M125.325 87.4295L104.003 87.6164C103.255 87.6164 102.644 87.0219 102.627 86.2913L102.439 70.2185L126.48 70.0146L126.667 86.0874C126.667 86.801 126.073 87.4125 125.325 87.4295Z" fill="#06163D"/>
<path d="M139.124 38.804C138.971 25.195 127.758 14.2703 114.064 14.3723C100.387 14.4912 89.4112 25.6197 89.5641 39.2118C89.666 48.3185 94.7461 56.219 102.188 60.4156L102.29 69.896L127.061 69.6921L126.959 60.2115C134.333 55.913 139.226 47.9277 139.124 38.804Z" fill="#F5C753"/>
<path d="M100.355 80.1912L129.273 79.9365" stroke="#080717" stroke-width="2.3251"/>
<path d="M100.268 72.0029L129.168 71.748" stroke="#080717" stroke-width="2.3251"/>
<path d="M110.14 69.03C110.14 69.03 110.089 47.0788 107.914 40.5206C107.149 38.176 102.358 31.7028 99.6568 35.0668C96.9553 38.4309 108.645 49.8652 114.523 42.6784C118.057 38.3629 119.875 24.3971 114.965 25.5184C112.026 26.181 109.375 42.5594 115.118 44.5302C122.797 47.1637 126.722 39.8581 126.977 37.4455C127.249 35.0329 118.821 39.6541 118.244 48.1491C117.666 56.6442 118.431 69.3189 118.431 69.3189" stroke="white" stroke-width="0.5813"/>
<path d="M172.167 60.3308C171.692 54.3163 165.694 40.9281 165.439 40.3674L162.483 33.7753C162.296 33.3505 161.838 33.1636 161.43 33.3165L144.236 39.7898C143.913 39.9088 143.692 40.2315 143.675 40.5883C143.59 42.1684 143.998 45.0397 145.901 46.5178L141.891 47.9789C141.534 48.1149 141.296 48.4887 141.313 48.8965C141.33 49.1343 141.687 54.6561 145.68 55.6925C145.799 56.7969 146.207 58.8525 147.549 60.2117C148.33 61.0103 149.316 61.418 150.471 61.486C150.471 62.8452 150.913 64.5783 152.544 65.6147C154.141 66.6171 159.697 65.6147 162.177 65.003C161.617 66.0564 160.393 68.8597 160.801 70.6437C160.92 71.1364 172.694 66.9229 172.167 60.3308Z" fill="white"/>
<path d="M144.952 55.7098C144.884 55.7098 144.799 55.7098 144.731 55.6758C140.195 54.6054 139.787 48.7098 139.77 48.455C139.736 48.0302 140.008 47.6224 140.416 47.4864L164.865 39.1445C165.375 38.9746 165.918 39.2464 166.088 39.7391C166.258 40.2488 165.986 40.7924 165.493 40.9623L141.792 49.0496C142.03 50.4088 142.795 53.2462 145.19 53.8069C145.7 53.9258 146.023 54.4524 145.904 54.9621C145.785 55.4209 145.377 55.7098 144.952 55.7098Z" fill="#06163D"/>
<path d="M146.971 46.8068C146.903 46.8068 146.818 46.8068 146.75 46.7728C143.047 45.9063 142.299 41.7267 142.418 39.6539C142.435 39.2631 142.69 38.9403 143.064 38.8044L162.5 31.9235C162.959 31.7536 163.469 31.9743 163.69 32.4161L167.019 39.416C167.24 39.8917 167.037 40.4694 166.561 40.6902C166.085 40.9111 165.508 40.7244 165.287 40.2317L162.33 34.0133L144.338 40.3845C144.389 41.6248 144.797 44.3433 147.192 44.904C147.702 45.0229 148.025 45.5495 147.906 46.0592C147.804 46.5009 147.396 46.8068 146.971 46.8068Z" fill="#06163D"/>
<path d="M150.439 61.8601C148.995 61.8601 147.789 61.4013 146.821 60.4838C144.697 58.479 144.646 55.0131 144.629 54.8602C144.629 54.4355 144.884 54.0616 145.292 53.9427L168.602 46.2972C169.112 46.1272 169.655 46.3991 169.808 46.9088C169.978 47.4185 169.706 47.9621 169.197 48.115L146.617 55.5229C146.736 56.4403 147.092 58.0883 148.146 59.0907C148.791 59.7024 149.607 59.9742 150.66 59.9402C151.204 59.9063 151.646 60.3309 151.663 60.8576C151.68 61.3843 151.272 61.8431 150.745 61.8601C150.626 61.8601 150.541 61.8601 150.439 61.8601Z" fill="#06163D"/>
<path d="M160.904 71.4436C160.428 71.4436 160.021 71.0869 159.953 70.5941C159.715 68.7082 160.14 67.2131 160.768 66.1087C157.965 66.7374 154.278 67.2639 152.46 66.1936C149.929 64.6984 149.929 61.7761 150.285 60.4339C150.37 60.1111 150.625 59.8394 150.948 59.7545L169.756 54.5384C170.266 54.4025 170.792 54.6913 170.945 55.201C171.081 55.7107 170.792 56.2373 170.283 56.3903L152.069 61.4535C152.001 62.235 152.069 63.7301 153.463 64.5456C155.077 65.497 160.497 64.3418 163.555 63.3734C164.03 63.2204 164.54 63.4582 164.727 63.9169C164.914 64.3757 164.744 64.9023 164.302 65.1402C164.183 65.2081 161.431 66.7883 161.873 70.3563C161.941 70.8829 161.567 71.3587 161.04 71.4266C160.972 71.4436 160.938 71.4436 160.904 71.4436Z" fill="#06163D"/>
<path d="M55.7047 60.3308C56.1804 54.3163 62.1778 40.9281 62.4327 40.3674L65.3889 33.7753C65.5758 33.3505 66.0345 33.1636 66.4423 33.3165L83.6363 39.7898C83.9591 39.9088 84.1799 40.2315 84.1969 40.5883C84.2818 42.1684 83.8742 45.0397 81.9713 46.5178L85.9809 47.9789C86.3377 48.1149 86.5755 48.4887 86.5585 48.8965C86.5415 49.1343 86.1848 54.6561 82.1921 55.6925C82.0732 56.7969 81.6655 58.8525 80.3233 60.2117C79.5417 61.0103 78.5561 61.418 77.4008 61.486C77.4008 62.8452 76.9591 64.5783 75.3281 65.6147C73.731 66.6171 68.1754 65.6147 65.6948 65.003C66.2555 66.0564 67.4787 68.8597 67.0709 70.6437C66.952 71.1364 55.178 66.9229 55.7047 60.3308Z" fill="white"/>
<path d="M82.919 55.7091C82.4773 55.7091 82.0866 55.4031 81.9847 54.9614C81.8658 54.4517 82.1884 53.9251 82.6981 53.8062C85.1107 53.2455 85.8583 50.3911 86.0962 49.0489L62.3951 40.9616C61.8854 40.7917 61.6306 40.248 61.8005 39.7383C61.9704 39.2286 62.514 38.9738 63.0237 39.1437L87.4725 47.4857C87.8802 47.6216 88.1521 48.0125 88.1181 48.4543C88.1011 48.7091 87.6933 54.6047 83.1569 55.6751C83.072 55.709 83.004 55.7091 82.919 55.7091Z" fill="#06163D"/>
<path d="M80.8972 46.8068C80.4554 46.8068 80.0646 46.5009 79.9626 46.0592C79.8437 45.5495 80.1666 45.0229 80.6763 44.904C83.0719 44.3433 83.4628 41.6248 83.5307 40.3845L65.5381 34.0133L62.5818 40.2317C62.3609 40.7074 61.7833 40.9111 61.3076 40.6902C60.8318 40.4694 60.6279 39.8917 60.8488 39.416L64.179 32.4161C64.3829 31.9743 64.9095 31.7536 65.3682 31.9235L84.805 38.8044C85.1618 38.9403 85.4164 39.2631 85.4504 39.6539C85.5693 41.7437 84.8389 45.9063 81.1181 46.7728C81.0501 46.7898 80.9821 46.8068 80.8972 46.8068Z" fill="#06163D"/>
<path d="M77.4316 61.8601C77.3297 61.8601 77.2448 61.8601 77.1429 61.8601C76.6162 61.8431 76.2084 61.3843 76.2254 60.8576C76.2424 60.3309 76.684 59.9063 77.2277 59.9402C78.2641 59.9912 79.0796 59.7024 79.7422 59.0907C80.7956 58.0883 81.1524 56.4573 81.2714 55.5229L58.6915 48.115C58.1818 47.9451 57.91 47.4015 58.0799 46.9088C58.2498 46.3991 58.7936 46.1272 59.2863 46.2972L82.5966 53.9427C82.9874 54.0786 83.2593 54.4525 83.2593 54.8602C83.2593 55.0131 83.1913 58.479 81.0675 60.4838C80.0821 61.3843 78.8758 61.8601 77.4316 61.8601Z" fill="#06163D"/>
<path d="M66.982 71.4429C66.9481 71.4429 66.8972 71.4429 66.8632 71.4429C66.3365 71.3749 65.9627 70.8992 66.0307 70.3725C66.4724 66.8046 63.72 65.2074 63.601 65.1564C63.1763 64.9186 62.9894 64.3919 63.1933 63.9332C63.3802 63.4745 63.89 63.2537 64.3657 63.3896C67.4069 64.341 72.8437 65.5133 74.4577 64.5618C75.8509 63.7463 75.919 62.2513 75.851 61.4697L57.6375 56.4065C57.1278 56.2706 56.8221 55.744 56.9751 55.2173C57.111 54.7076 57.6376 54.4017 58.1643 54.5546L76.9722 59.7707C77.295 59.8557 77.5499 60.1273 77.6349 60.4501C77.9916 61.7924 77.9918 64.7147 75.4603 66.2098C73.6593 67.2802 69.9555 66.7536 67.1521 66.125C67.7807 67.2463 68.2055 68.7245 67.9676 70.6104C67.8657 71.0861 67.4578 71.4429 66.982 71.4429Z" fill="#06163D"/>
<path d="M143.383 170.187C146.275 152.367 134.173 135.575 116.352 132.683C98.5314 129.791 81.7403 141.893 78.8481 159.714C75.9559 177.534 88.0578 194.326 105.879 197.218C123.699 200.11 140.491 188.008 143.383 170.187Z" fill="#06163D"/>
<path d="M71.7738 211.254C76.0043 213.972 78.162 216.861 78.4848 218.985H200.202C198.367 212.987 195.003 206.276 188.937 204.934C177.537 202.402 176.908 201.774 181.971 189.728C187.034 177.699 194.187 170.631 176.28 168.83C163.622 167.556 162.976 163.767 162.348 149.206C161.719 134.646 138.919 132.743 130.678 136.549C122.438 140.354 130.678 130.857 123.084 128.954C115.489 127.051 113.586 131.486 112.312 134.646C111.038 137.806 95.22 139.08 92.0428 150.48C88.8827 161.881 76.2081 160.607 80.6425 179.619C85.077 198.613 78.7397 191.019 73.6767 192.922C68.6136 194.791 62.9219 205.562 71.7738 211.254Z" fill="#06163D"/>
<path d="M138.767 219.631V197.816C140.636 195.93 142.063 193.534 142.743 190.765L142.862 190.272C143.983 191.376 145.41 192.175 147.058 192.515C151.595 193.449 156.029 190.527 156.964 185.973C157.898 181.437 154.976 177.003 150.422 176.068C148.978 175.779 147.568 175.864 146.26 176.272C148.655 163.615 142.25 150.821 130.476 145.282C115.966 138.452 98.6705 144.976 92.2992 159.69L88.7994 167.743C83.2096 180.639 90.9571 195.386 104.753 198.104L107.268 198.597V219.648H138.767V219.631Z" fill="white"/>
<path d="M138.766 220.599C138.239 220.599 137.798 220.174 137.798 219.63V197.815C137.798 197.56 137.9 197.322 138.07 197.135C139.888 195.301 141.179 193.007 141.79 190.526L141.909 190.034C141.994 189.694 142.249 189.439 142.572 189.337C142.912 189.235 143.269 189.337 143.506 189.575C144.526 190.577 145.817 191.274 147.21 191.563C149.164 191.97 151.135 191.58 152.8 190.492C154.465 189.405 155.586 187.723 155.994 185.786C156.385 183.849 156.011 181.861 154.924 180.196C153.836 178.531 152.154 177.41 150.218 177.002C148.994 176.747 147.72 176.815 146.531 177.189C146.208 177.291 145.851 177.206 145.613 176.985C145.358 176.764 145.239 176.425 145.307 176.085C147.635 163.784 141.366 151.466 130.05 146.148C123.271 142.954 115.677 142.648 108.66 145.299C101.643 147.949 96.138 153.182 93.1648 160.063L89.6649 168.116C87.1164 173.995 87.3711 180.621 90.3444 186.279C93.3176 191.953 98.6357 195.912 104.922 197.135L107.436 197.628C107.895 197.713 108.218 198.104 108.218 198.563V219.613C108.218 220.14 107.793 220.582 107.25 220.582C106.706 220.582 106.281 220.157 106.281 219.613V199.361L104.548 199.021C97.6843 197.679 91.8905 193.347 88.6454 187.162C85.4002 180.978 85.1285 173.757 87.8979 167.335L91.3977 159.282C94.5919 151.925 100.47 146.318 107.98 143.481C115.49 140.643 123.611 140.966 130.866 144.398C142.538 149.903 149.198 162.34 147.414 175.014C148.468 174.861 149.555 174.895 150.591 175.116C153.038 175.626 155.145 177.036 156.521 179.126C157.897 181.216 158.373 183.713 157.88 186.16C157.37 188.606 155.96 190.713 153.87 192.089C151.781 193.466 149.283 193.941 146.836 193.449C145.579 193.194 144.407 192.684 143.371 191.97C142.64 194.298 141.383 196.422 139.701 198.223V219.647C139.735 220.157 139.31 220.599 138.766 220.599Z" fill="#06163D"/>
<path d="M144.764 186.669C144.696 186.669 144.628 186.669 144.577 186.652C144.05 186.55 143.727 186.041 143.829 185.514C144.22 183.645 145.307 182.031 146.904 180.978C148.501 179.924 150.404 179.551 152.29 179.941C152.817 180.043 153.14 180.553 153.038 181.079C152.936 181.606 152.426 181.929 151.9 181.827C150.523 181.538 149.13 181.81 147.958 182.592C146.785 183.356 145.987 184.546 145.715 185.905C145.613 186.347 145.205 186.669 144.764 186.669Z" fill="#06163D"/>
<path d="M104.295 168.083C104.074 168.083 103.836 167.998 103.666 167.845C103.275 167.488 103.224 166.893 103.581 166.485L108.219 161.253C109.46 159.859 110.02 158.007 109.783 156.156C109.545 154.304 108.508 152.656 106.945 151.636C106.911 151.619 106.877 151.602 106.86 151.568C106.758 151.483 104.125 149.444 99.1637 151.738C98.688 151.959 98.1103 151.755 97.8895 151.262C97.6686 150.787 97.8725 150.209 98.3652 149.988C104.159 147.304 107.574 149.682 108.05 150.056C110.054 151.381 111.38 153.522 111.685 155.901C112.008 158.296 111.261 160.709 109.663 162.527L105.025 167.76C104.821 167.981 104.567 168.083 104.295 168.083Z" fill="#06163D"/>
<path d="M127.111 164.311C126.074 165.653 124.562 166.027 123.747 165.16C122.931 164.294 123.118 162.51 124.154 161.167C125.191 159.825 126.703 159.451 127.518 160.318C128.334 161.184 128.147 162.968 127.111 164.311Z" fill="#06163D"/>
<path d="M103.492 158.823C102.455 160.165 100.943 160.539 100.128 159.672C99.312 158.806 99.4989 157.022 100.535 155.68C101.572 154.337 103.084 153.964 103.9 154.83C104.715 155.697 104.528 157.497 103.492 158.823Z" fill="#06163D"/>
<path d="M102.951 171.072L118.752 171.157C118.752 171.14 110.257 189.439 102.951 171.072Z" fill="white"/>
<path d="M110.309 180.213C110.258 180.213 110.224 180.213 110.173 180.213C107.081 180.128 104.345 177.172 102.052 171.429C101.933 171.14 101.967 170.801 102.154 170.529C102.341 170.274 102.629 170.104 102.952 170.104L118.753 170.189C119.076 170.189 119.382 170.359 119.552 170.631C119.722 170.903 119.756 171.259 119.62 171.548C119.467 171.905 115.542 180.213 110.309 180.213ZM104.413 172.024C106.214 176.068 108.219 178.225 110.241 178.276C112.993 178.378 115.763 174.589 117.19 172.092L104.413 172.024Z" fill="#06163D"/>
<path d="M146.428 175.115C148.212 163.086 142.129 151.159 131.137 145.621C130.457 156.851 136.404 167.759 146.428 175.115Z" fill="#06163D"/>
<path d="M135.978 164.395C135.57 164.395 135.197 164.14 135.061 163.732C132.444 155.543 122.505 154.694 122.403 154.677C121.876 154.643 121.486 154.184 121.52 153.64C121.554 153.097 122.012 152.706 122.539 152.757C122.998 152.791 133.854 153.691 136.879 163.138C137.031 163.648 136.76 164.191 136.25 164.344C136.165 164.378 136.063 164.395 135.978 164.395Z" fill="#06163D"/>
</svg>
