<svg width="223" height="238" viewBox="0 0 223 238" fill="none" xmlns="http://www.w3.org/2000/svg">
<path d="M219.233 173.337L92.8001 149.427L37.2254 149.096L30.3418 168.858L37.4173 172.5L47.0368 176.822C54.7221 180.272 63.3659 180.935 71.4695 178.669L79.4684 176.439L219.216 236.876V173.337H219.233Z" fill="white"/>
<path d="M220.21 236.875C220.21 236.997 220.175 237.136 220.123 237.258C219.914 237.764 219.321 237.99 218.833 237.764L79.3998 177.449L71.7493 179.592C63.4366 181.91 54.514 181.248 46.6544 177.71L37.0346 173.388L29.9071 169.729C29.4714 169.502 29.2622 168.997 29.4191 168.526L36.3029 148.764C36.4423 148.363 36.8255 148.102 37.2438 148.102L92.8185 148.433C92.8708 148.433 92.9404 148.433 92.9927 148.45L219.426 172.36C219.966 172.465 220.314 172.97 220.21 173.51C220.105 174.051 219.6 174.399 219.06 174.294L92.7315 150.402L37.9583 150.071L31.5974 168.352L37.906 171.593L47.4734 175.898C54.9322 179.244 63.3669 179.888 71.2439 177.693L79.243 175.462C79.4521 175.392 79.6959 175.41 79.905 175.514L219.652 235.951C219.983 236.143 220.21 236.509 220.21 236.875Z" fill="#06163D"/>
<path d="M219.231 64.5403L92.7982 88.4501L37.2234 88.7813L30.3398 69.0189L37.4153 65.3767L47.0348 61.0549C54.7201 57.6043 63.364 56.942 71.4675 59.2075L79.4665 61.4382L219.214 1.00146V64.5403H219.231Z" fill="white"/>
<path d="M220.209 1.00156C220.209 1.38495 219.983 1.75074 219.617 1.90758L79.87 62.3445C79.6608 62.4317 79.4343 62.4491 79.2077 62.3969L71.2086 60.1661C63.3316 57.9703 54.8971 58.5978 47.4383 61.9612L37.8186 66.283L31.5447 69.507L37.9056 87.7879L92.6788 87.4569L219.007 63.5643C219.547 63.4598 220.053 63.8084 220.157 64.3487C220.262 64.8889 219.913 65.3943 219.373 65.4989L92.9402 89.4087C92.8879 89.4261 92.8181 89.4262 92.7658 89.4262L37.1912 89.7572C36.773 89.7572 36.3895 89.4958 36.2501 89.0949L29.3663 69.3328C29.2095 68.8622 29.4187 68.3567 29.8543 68.1302L36.9298 64.488L46.6017 60.1313C54.4787 56.5936 63.3839 55.914 71.6966 58.2492L79.3471 60.3927L218.781 0.0778752C219.286 -0.131249 219.861 0.0953702 220.07 0.583326C220.192 0.722742 220.209 0.862141 220.209 1.00156Z" fill="#06163D"/>
<path d="M0 145.733C0 158.611 10.4215 169.224 23.2303 169.381L79.5369 170.078C85.8106 170.148 91.7531 167.76 96.2493 163.351C100.745 158.942 103.255 153.035 103.342 146.709L104.022 90.0359V89.7395C104.022 76.861 93.6004 66.248 80.7916 66.0912L24.485 65.3941C18.2113 65.3244 12.2688 67.7118 7.77259 72.1209C3.27642 76.5299 0.766814 82.4377 0.679679 88.7637L0 145.436V145.733Z" fill="#06163D"/>
<path d="M4.63477 145.733C4.63477 145.646 4.63477 145.576 4.63477 145.489L5.31444 88.8164C5.43643 78.3253 13.993 69.9257 24.4144 70.0477L80.7211 70.7446C91.0728 70.8666 99.3679 79.3536 99.3679 89.7401C99.3679 89.8272 99.3679 89.897 99.3679 89.9841L98.6883 146.657C98.5663 157.148 90.0097 165.548 79.5883 165.426L23.2816 164.729C12.9299 164.607 4.63477 156.12 4.63477 145.733Z" fill="white"/>
<path d="M4.63564 145.733C4.63564 145.645 4.63564 145.576 4.63564 145.489L5.31532 88.8159C5.43731 78.3248 13.9939 69.9252 24.4152 70.0471L80.722 70.7441C91.0736 70.866 99.3688 79.353 99.3688 89.7395C99.3688 89.8267 99.3688 89.8964 99.3688 89.9835L98.6891 146.656C98.5671 157.147 90.0106 165.547 79.5892 165.425L23.2825 164.728C12.9308 164.606 4.63564 156.119 4.63564 145.733ZM0 145.733C0 158.611 10.4215 169.224 23.2303 169.381L79.5369 170.078C85.8106 170.148 91.7531 167.76 96.2493 163.351C100.745 158.942 103.255 153.035 103.342 146.709L104.022 90.0359V89.7395C104.022 76.861 93.6004 66.248 80.7916 66.0912L24.485 65.3941C18.2113 65.3244 12.2688 67.7118 7.77259 72.1209C3.27642 76.5299 0.766814 82.4377 0.679679 88.7637L0 145.436V145.733Z" fill="#06163D"/>
<path d="M51.186 150.578C70.1851 150.578 85.5869 135.075 85.5869 115.951C85.5869 96.8265 70.1851 81.3232 51.186 81.3232C32.1869 81.3232 16.7852 96.8265 16.7852 115.951C16.7852 135.075 32.1869 150.578 51.186 150.578Z" fill="#F5C753"/>
<path d="M52.3695 104.849L57.4233 113.65L62.477 122.45H52.3695H42.2617L47.3156 113.65L52.3695 104.849Z" fill="white"/>
<path d="M58.4546 59.2071C52.2854 59.695 38.5529 65.8469 37.9778 66.1083L31.2162 69.1406C30.7805 69.3323 30.5887 69.8028 30.7456 70.221L37.3854 87.8572C37.5074 88.1883 37.8384 88.4147 38.2044 88.4322C39.8251 88.5193 42.7703 88.1012 44.2864 86.1493L45.7851 90.2621C45.9245 90.6281 46.308 90.872 46.7262 90.8545C46.9702 90.8371 52.634 90.4712 53.697 86.3759C54.8298 86.2539 56.9385 85.8355 58.3327 84.4588C59.1517 83.6571 59.57 82.6464 59.6397 81.4614C61.0339 81.4614 62.8113 81.0083 63.8743 79.3353C64.9025 77.6972 63.8744 71.9985 63.247 69.4541C64.3275 70.0292 67.2028 71.2841 69.0327 70.8658C69.5381 70.7438 65.2162 58.6668 58.4546 59.2071Z" fill="white"/>
<path d="M53.7133 87.1256C53.7133 87.1953 53.7132 87.2825 53.6784 87.3522C52.5805 92.0052 46.5333 92.4235 46.2719 92.441C45.8362 92.4758 45.4179 92.197 45.2784 91.7787L36.7219 66.7012C36.5477 66.1784 36.8265 65.6208 37.3318 65.4465C37.8546 65.2723 38.4123 65.5511 38.5865 66.0564L46.8818 90.367C48.276 90.1231 51.1864 89.3388 51.7614 86.8816C51.8834 86.3588 52.4236 86.0278 52.9464 86.1498C53.4169 86.2893 53.7133 86.69 53.7133 87.1256Z" fill="#06163D"/>
<path d="M44.5846 85.0522C44.5846 85.1219 44.5846 85.2091 44.5497 85.2788C43.6609 89.0779 39.3738 89.8445 37.2477 89.7226C36.8469 89.7051 36.5158 89.4437 36.3764 89.0603L29.3185 69.1239C29.1443 68.6534 29.3707 68.1305 29.8238 67.9039L37.0037 64.4883C37.4917 64.2617 38.0842 64.4709 38.3107 64.9589C38.5373 65.4468 38.3283 66.0393 37.8404 66.2659L31.462 69.2982L37.9972 87.7533C39.2693 87.701 42.0577 87.2829 42.6328 84.8257C42.7548 84.3029 43.2949 83.9717 43.8177 84.0937C44.2882 84.1982 44.5846 84.6166 44.5846 85.0522Z" fill="#06163D"/>
<path d="M60.0209 81.4968C60.0209 82.9781 59.5503 84.2154 58.6092 85.2088C56.5528 87.3872 52.9979 87.4395 52.841 87.4569C52.4053 87.4569 52.0219 87.1955 51.8999 86.7773L44.0577 62.8675C43.8835 62.3446 44.1623 61.7868 44.6851 61.63C45.2079 61.4557 45.7655 61.7345 45.9223 62.2573L53.5207 85.4179C54.4617 85.2959 56.1521 84.9299 57.1803 83.8494C57.8077 83.1872 58.0865 82.3507 58.0517 81.2703C58.0168 80.7126 58.4523 80.2596 58.9926 80.2421C59.5328 80.2247 60.0035 80.643 60.0209 81.1833C60.0209 81.3052 60.0209 81.3923 60.0209 81.4968Z" fill="#06163D"/>
<path d="M69.8705 70.7794C69.8705 71.2673 69.5045 71.6857 68.9991 71.7554C67.0647 71.9994 65.5311 71.5463 64.3984 70.9189C65.0432 73.7944 65.5833 77.5761 64.4854 79.4408C62.9518 82.0374 59.9543 82.0372 58.5776 81.6713C58.2465 81.5841 57.9678 81.3227 57.8807 80.9916L52.5305 61.7C52.391 61.1772 52.6873 60.637 53.2101 60.4802C53.733 60.3408 54.2731 60.6368 54.4299 61.1597L59.6234 79.8416C60.425 79.9113 61.9585 79.8414 62.795 78.4124C63.7709 76.7569 62.586 71.1977 61.5926 68.0609C61.4358 67.5729 61.6797 67.05 62.1502 66.8583C62.6207 66.6666 63.1609 66.8409 63.4049 67.294C63.4746 67.416 65.0954 70.2392 68.7551 69.7861C69.2953 69.7164 69.7833 70.0998 69.853 70.64C69.853 70.6923 69.8705 70.7271 69.8705 70.7794Z" fill="#06163D"/>
<path d="M58.4546 178.669C52.2854 178.181 38.5529 172.029 37.9778 171.768L31.2162 168.736C30.7805 168.544 30.5887 168.073 30.7456 167.655L37.3854 150.019C37.5074 149.688 37.8384 149.461 38.2044 149.444C39.8251 149.357 42.7703 149.775 44.2864 151.727L45.7851 147.614C45.9245 147.248 46.308 147.004 46.7262 147.021C46.9702 147.039 52.634 147.405 53.697 151.5C54.8298 151.622 56.9385 152.04 58.3327 153.417C59.1517 154.219 59.57 155.23 59.6397 156.415C61.0339 156.415 62.8113 156.868 63.8743 158.541C64.9025 160.179 63.8744 165.877 63.247 168.422C64.3275 167.847 67.2028 166.592 69.0327 167.01C69.5381 167.132 65.2162 179.209 58.4546 178.669Z" fill="white"/>
<path d="M53.7131 150.751C53.7131 151.204 53.3993 151.605 52.9462 151.71C52.4234 151.832 51.8832 151.5 51.7613 150.978C51.1862 148.503 48.2583 147.736 46.8816 147.492L38.5863 171.803C38.4121 172.326 37.8545 172.587 37.3316 172.413C36.8088 172.239 36.5475 171.681 36.7217 171.158L45.2782 146.081C45.4177 145.662 45.8186 145.384 46.2717 145.418C46.5331 145.436 52.5803 145.854 53.6782 150.507C53.713 150.594 53.7131 150.664 53.7131 150.751Z" fill="#06163D"/>
<path d="M44.5846 152.825C44.5846 153.278 44.2708 153.679 43.8177 153.784C43.2949 153.906 42.7548 153.575 42.6328 153.052C42.0577 150.595 39.2693 150.194 37.9972 150.124L31.462 168.579L37.8404 171.611C38.3283 171.838 38.5373 172.43 38.3107 172.918C38.0842 173.406 37.4917 173.616 37.0037 173.389L29.8238 169.973C29.3707 169.764 29.1443 169.224 29.3185 168.754L36.3764 148.817C36.5158 148.451 36.8469 148.19 37.2477 148.155C39.3912 148.033 43.6609 148.782 44.5497 152.599C44.5846 152.668 44.5846 152.738 44.5846 152.825Z" fill="#06163D"/>
<path d="M60.0209 156.38C60.0209 156.484 60.0209 156.571 60.0209 156.676C60.0035 157.216 59.5328 157.635 58.9926 157.617C58.4523 157.6 58.0168 157.146 58.0517 156.589C58.1039 155.526 57.8077 154.689 57.1803 154.01C56.1521 152.929 54.4792 152.563 53.5207 152.441L45.9223 175.602C45.7481 176.125 45.1905 176.403 44.6851 176.229C44.1623 176.055 43.8835 175.497 44.0577 174.992L51.8999 151.082C52.0393 150.681 52.4228 150.402 52.841 150.402C52.9979 150.402 56.5528 150.472 58.6092 152.65C59.5503 153.661 60.0209 154.898 60.0209 156.38Z" fill="#06163D"/>
<path d="M69.867 167.098C69.867 167.133 69.867 167.185 69.867 167.22C69.7973 167.76 69.3093 168.144 68.7691 168.074C65.1094 167.621 63.4711 170.444 63.4189 170.566C63.1749 171.001 62.6347 171.193 62.1642 170.984C61.6936 170.792 61.467 170.27 61.6064 169.782C62.5823 166.662 63.7849 161.085 62.8089 159.43C61.9725 158.001 60.439 157.931 59.6373 158.001L54.4439 176.683C54.3045 177.205 53.7643 177.519 53.2241 177.362C52.7013 177.223 52.3876 176.683 52.5444 176.143L57.8946 156.851C57.9818 156.52 58.2604 156.258 58.5915 156.171C59.9683 155.805 62.9657 155.805 64.4993 158.402C65.5972 160.249 65.0571 164.048 64.4123 166.924C65.5625 166.279 67.0785 165.843 69.0129 166.087C69.5008 166.192 69.867 166.61 69.867 167.098Z" fill="#06163D"/>
<path d="M198.909 127.305C201.876 109.026 189.463 91.8025 171.184 88.8359C152.905 85.8694 135.682 98.2827 132.715 116.562C129.749 134.841 142.162 152.064 160.441 155.03C178.72 157.997 195.943 145.584 198.909 127.305Z" fill="#06163D"/>
<path d="M213.273 162.184C216.062 157.844 219.024 155.631 221.203 155.3V30.4526C215.051 32.3348 208.167 35.7853 206.791 42.0067C204.194 53.7003 203.549 54.3452 191.194 49.152C178.855 43.9587 171.605 36.6219 169.758 54.99C168.451 67.9731 164.565 68.6353 149.63 69.2801C134.695 69.9249 132.743 93.3119 136.647 101.764C140.551 110.216 130.809 101.764 128.857 109.554C126.905 117.344 131.454 119.296 134.695 120.603C137.937 121.91 139.243 138.134 150.937 141.393C162.63 144.634 161.324 157.635 180.824 153.086C200.308 148.538 192.518 155.038 194.47 160.232C196.387 165.425 207.418 171.28 213.273 162.184Z" fill="#06163D"/>
<path d="M221.845 93.4697H199.468C197.534 91.5527 195.077 90.0889 192.236 89.3918L191.731 89.2697C192.863 88.1195 193.683 86.6557 194.031 84.9653C194.99 80.3123 191.992 75.7639 187.322 74.8054C182.669 73.8469 178.12 76.8443 177.162 81.5148C176.865 82.9961 176.953 84.4424 177.371 85.7843C164.388 83.3271 151.265 89.8971 145.584 101.974C138.578 116.857 145.27 134.597 160.362 141.132L168.622 144.723C181.85 150.456 196.976 142.509 199.764 128.359L200.27 125.779H221.862V93.4697H221.845Z" fill="white"/>
<path d="M222.841 93.4693C222.841 94.0095 222.405 94.4628 221.848 94.4628H199.472C199.21 94.4628 198.966 94.3581 198.774 94.1839C196.892 92.3192 194.54 90.9946 191.995 90.3672L191.49 90.2453C191.141 90.1582 190.88 89.8968 190.776 89.5657C190.671 89.2171 190.775 88.8511 191.019 88.6071C192.048 87.5615 192.762 86.2371 193.058 84.8081C193.477 82.804 193.076 80.7824 191.96 79.0746C190.845 77.3667 189.12 76.2165 187.133 75.7983C185.146 75.3975 183.108 75.7809 181.4 76.8962C179.692 78.0115 178.542 79.7368 178.124 81.7235C177.862 82.9783 177.932 84.2854 178.315 85.5052C178.42 85.8364 178.333 86.2022 178.106 86.4462C177.88 86.7076 177.531 86.8296 177.182 86.7599C164.565 84.3724 151.931 90.803 146.476 102.409C143.2 109.363 142.886 117.153 145.605 124.35C148.323 131.547 153.691 137.194 160.749 140.243L169.009 143.833C175.039 146.447 181.835 146.186 187.639 143.136C193.442 140.087 197.52 134.632 198.774 128.184L199.28 125.605C199.367 125.134 199.768 124.803 200.238 124.803H221.83C222.371 124.803 222.824 125.239 222.824 125.796C222.824 126.354 222.388 126.79 221.83 126.79H201.057L200.709 128.567C199.332 135.608 194.888 141.55 188.545 144.879C182.201 148.208 174.795 148.486 168.207 145.646L159.947 142.056C152.401 138.78 146.65 132.75 143.74 125.047C140.83 117.344 141.161 109.014 144.681 101.573C150.327 89.6005 163.084 82.7692 176.085 84.599C175.928 83.5185 175.962 82.4032 176.189 81.3402C176.712 78.8307 178.158 76.6697 180.302 75.2582C182.445 73.8466 185.007 73.3585 187.517 73.8639C190.026 74.3867 192.187 75.8331 193.599 77.9767C195.01 80.1202 195.498 82.682 194.993 85.1915C194.731 86.4811 194.209 87.6836 193.477 88.7466C195.864 89.496 198.043 90.7857 199.89 92.5109H221.865C222.388 92.4761 222.841 92.9291 222.841 93.4693Z" fill="#06163D"/>
<path d="M188.042 87.3172C188.042 87.3869 188.042 87.4566 188.025 87.5089C187.92 88.0491 187.398 88.3803 186.858 88.2758C184.941 87.875 183.285 86.7595 182.204 85.1214C181.124 83.4832 180.741 81.5316 181.141 79.5972C181.246 79.0569 181.769 78.7257 182.309 78.8303C182.849 78.9348 183.18 79.4577 183.076 79.9979C182.78 81.4095 183.058 82.8385 183.86 84.0409C184.644 85.2434 185.864 86.0626 187.258 86.3414C187.711 86.446 188.042 86.8641 188.042 87.3172Z" fill="#06163D"/>
<path d="M168.974 128.827C168.974 129.054 168.887 129.298 168.73 129.472C168.364 129.873 167.754 129.925 167.336 129.559L161.969 124.802C160.54 123.529 158.64 122.954 156.741 123.198C154.841 123.442 153.151 124.505 152.105 126.109C152.088 126.143 152.07 126.178 152.035 126.196C151.948 126.3 149.857 129.002 152.21 134.09C152.436 134.578 152.227 135.171 151.722 135.397C151.234 135.624 150.641 135.415 150.415 134.909C147.661 128.967 150.101 125.464 150.484 124.976C151.843 122.919 154.039 121.56 156.479 121.247C158.936 120.915 161.411 121.682 163.276 123.32L168.643 128.078C168.87 128.287 168.974 128.566 168.974 128.827Z" fill="#06163D"/>
<path d="M165.105 105.441C166.482 106.504 166.865 108.055 165.976 108.892C165.087 109.728 163.258 109.537 161.881 108.473C160.504 107.41 160.121 105.859 161.01 105.023C161.898 104.186 163.728 104.361 165.105 105.441Z" fill="#06163D"/>
<path d="M159.474 129.647C160.851 130.71 161.234 132.261 160.345 133.098C159.457 133.934 157.627 133.743 156.25 132.68C154.873 131.616 154.49 130.066 155.379 129.229C156.267 128.393 158.115 128.584 159.474 129.647Z" fill="#06163D"/>
<path d="M172.043 130.205L172.13 113.998C172.113 113.998 190.882 122.711 172.043 130.205Z" fill="white"/>
<path d="M181.418 122.658C181.418 122.711 181.418 122.745 181.418 122.798C181.331 125.969 178.299 128.775 172.408 131.128C172.112 131.25 171.763 131.215 171.485 131.023C171.223 130.832 171.049 130.535 171.049 130.204L171.136 113.997C171.136 113.666 171.31 113.353 171.589 113.178C171.868 113.004 172.234 112.969 172.53 113.108C172.896 113.265 181.418 117.291 181.418 122.658ZM173.036 128.723C177.183 126.876 179.396 124.819 179.449 122.746C179.553 119.922 175.667 117.082 173.105 115.618L173.036 128.723Z" fill="#06163D"/>
<path d="M176.195 85.6097C163.856 83.7799 151.623 90.0188 145.941 101.294C157.461 101.991 168.649 95.8917 176.195 85.6097Z" fill="#06163D"/>
<path d="M165.194 96.3271C165.194 96.7453 164.932 97.1288 164.514 97.2682C156.114 99.952 155.243 110.147 155.226 110.251C155.191 110.791 154.72 111.192 154.163 111.157C153.622 111.123 153.204 110.652 153.256 110.112C153.291 109.641 154.215 98.5054 163.904 95.4034C164.427 95.2466 164.985 95.5254 165.141 96.0482C165.194 96.1353 165.194 96.2399 165.194 96.3271Z" fill="#06163D"/>
</svg>
