<svg width="275" height="261" viewBox="0 0 275 261" fill="none" xmlns="http://www.w3.org/2000/svg">
<path d="M200.087 4.18359L172.488 150.124L172.105 214.274L194.917 222.22L199.121 214.052L204.11 202.948C208.093 194.077 208.857 184.1 206.242 174.746L203.667 165.513L273.429 4.20373H200.087V4.18359Z" fill="white"/>
<path d="M273.447 3.037C273.588 3.037 273.748 3.07733 273.889 3.13767C274.473 3.37907 274.734 4.06299 274.473 4.62623L204.852 165.573L207.326 174.404C210.001 184 209.237 194.299 205.153 203.371L200.165 214.475L195.94 222.703C195.679 223.205 195.095 223.447 194.552 223.266L171.741 215.32C171.278 215.159 170.977 214.717 170.977 214.234L171.359 150.084C171.359 150.024 171.359 149.943 171.379 149.883L198.978 3.94236C199.098 3.31877 199.682 2.9163 200.305 3.037C200.929 3.15769 201.331 3.74112 201.211 4.36471L173.632 150.185L173.25 213.409L194.351 220.751L198.093 213.469L203.061 202.426C206.924 193.816 207.668 184.08 205.133 174.988L202.558 165.754C202.478 165.513 202.498 165.231 202.619 164.99L272.381 3.68084C272.582 3.29864 273.004 3.037 273.447 3.037Z" fill="#06163D"/>
<path d="M74.4981 4.18359L102.097 150.124L102.479 214.274L79.668 222.22L75.4638 214.052L70.4749 202.948C66.4919 194.077 65.7277 184.1 68.3629 174.746L70.9378 165.513L1.17578 4.20373H74.4981V4.18359Z" fill="white"/>
<path d="M1.15609 3.03662C1.59864 3.03662 2.02111 3.2983 2.20216 3.72074L71.9639 165.03C72.0645 165.271 72.0846 165.533 72.0243 165.794L69.4494 175.027C66.9148 184.12 67.639 193.856 71.5214 202.465L76.5101 213.569L80.2317 220.811L101.333 213.469L100.951 150.245L73.3722 4.42474C73.2515 3.80115 73.6537 3.21772 74.2773 3.09703C74.9009 2.97633 75.4843 3.3788 75.605 4.00239L103.204 149.943C103.224 150.003 103.224 150.084 103.224 150.144L103.606 214.294C103.606 214.776 103.305 215.219 102.842 215.38L80.0304 223.326C79.4873 223.507 78.904 223.265 78.6425 222.763L74.4384 214.595L69.4094 203.431C65.3259 194.339 64.5412 184.06 67.2367 174.464L69.7109 165.633L0.0898908 4.68626C-0.1515 4.1029 0.110085 3.4391 0.67333 3.19771C0.854373 3.05689 0.995164 3.03662 1.15609 3.03662Z" fill="#06163D"/>
<path d="M97.8499 147.872L174.652 146.947C184.409 146.826 192.415 154.632 192.535 164.388L193.461 241.19C193.581 250.946 185.777 258.952 176.02 259.073L99.2179 259.999C89.4617 260.119 81.4555 252.314 81.3348 242.558L80.4096 165.755C80.2889 155.999 88.1138 147.993 97.8499 147.872Z" stroke="#080717" stroke-width="1.6955" stroke-miterlimit="10"/>
<path d="M154.98 240.225C163.912 240.225 171.153 232.984 171.153 224.052C171.153 215.119 163.912 207.878 154.98 207.878C146.047 207.878 138.807 215.119 138.807 224.052C138.807 232.984 146.047 240.225 154.98 240.225Z" fill="#F5C753"/>
<path d="M192.537 164.388L192.758 181.828L185.014 189.774C179.28 195.648 169.886 195.748 164.012 190.035C158.46 184.624 149.569 184.725 144.138 190.277L113.723 221.436C106.501 228.839 94.653 228.98 87.2504 221.758L81.0344 215.683L80.4311 165.776C80.3104 156.019 88.1152 148.013 97.8714 147.892L174.674 146.967C184.41 146.826 192.416 154.631 192.537 164.388Z" fill="#06163D"/>
<path d="M68.3445 189.753C68.9078 196.874 76.0086 212.726 76.3103 213.389L79.8105 221.194C80.0318 221.697 80.5749 221.919 81.0577 221.738L101.415 214.073C101.797 213.932 102.059 213.55 102.079 213.128C102.179 211.257 101.697 207.858 99.4436 206.107L104.191 204.378C104.613 204.217 104.895 203.774 104.875 203.291C104.855 203.01 104.432 196.472 99.7051 195.245C99.5643 193.937 99.0816 191.503 97.4924 189.894C96.5671 188.949 95.4004 188.466 94.0326 188.385C94.0326 186.776 93.5094 184.724 91.5782 183.497C89.6873 182.31 83.1096 183.497 80.1727 184.221C80.8365 182.974 82.2847 179.655 81.8019 177.543C81.6611 176.959 67.7209 181.948 68.3445 189.753Z" fill="white"/>
<path d="M100.569 195.224C100.649 195.224 100.75 195.224 100.83 195.264C106.201 196.532 106.684 203.512 106.704 203.814C106.744 204.317 106.422 204.799 105.939 204.96L76.9927 214.837C76.3892 215.038 75.7456 214.716 75.5444 214.133C75.3433 213.53 75.6651 212.886 76.2484 212.685L104.31 203.11C104.029 201.5 103.123 198.141 100.287 197.477C99.6836 197.336 99.3013 196.713 99.4421 196.109C99.603 195.566 100.066 195.224 100.569 195.224Z" fill="#06163D"/>
<path d="M98.176 205.766C98.2565 205.766 98.3571 205.766 98.4375 205.806C102.823 206.832 103.708 211.78 103.567 214.235C103.547 214.697 103.245 215.079 102.803 215.24L79.7901 223.387C79.247 223.588 78.6436 223.327 78.3821 222.804L74.4394 214.516C74.1779 213.953 74.4191 213.269 74.9824 213.007C75.5456 212.746 76.2295 212.967 76.4911 213.55L79.9914 220.913L101.294 213.369C101.234 211.901 100.751 208.682 97.9145 208.019C97.311 207.878 96.929 207.254 97.0698 206.651C97.2106 206.128 97.6731 205.766 98.176 205.766Z" fill="#06163D"/>
<path d="M94.0741 187.942C95.7839 187.942 97.2119 188.486 98.3585 189.572C100.873 191.946 100.933 196.049 100.954 196.23C100.954 196.733 100.652 197.176 100.169 197.316L72.5701 206.369C71.9666 206.57 71.3229 206.248 71.1419 205.644C70.9407 205.041 71.2626 204.397 71.866 204.216L98.6001 195.446C98.4593 194.359 98.0368 192.408 96.7896 191.221C96.0252 190.497 95.0597 190.175 93.8125 190.215C93.1688 190.256 92.6456 189.753 92.6255 189.129C92.6054 188.506 93.0883 187.962 93.7119 187.942C93.8527 187.942 93.9534 187.942 94.0741 187.942Z" fill="#06163D"/>
<path d="M81.7017 176.598C82.2649 176.598 82.7476 177.021 82.828 177.604C83.1096 179.837 82.6068 181.607 81.8625 182.915C85.1816 182.17 89.5468 181.547 91.6992 182.814C94.6965 184.584 94.6965 188.044 94.2741 189.633C94.1735 190.015 93.8717 190.337 93.4895 190.438L71.2211 196.614C70.6176 196.775 69.9942 196.433 69.8131 195.829C69.6522 195.226 69.9942 194.602 70.5977 194.421L92.1618 188.426C92.2423 187.501 92.1619 185.731 90.5124 184.765C88.6014 183.639 82.1843 185.007 78.5635 186.153C78.0002 186.334 77.3969 186.053 77.1756 185.51C76.9543 184.966 77.1555 184.343 77.6785 184.061C77.8193 183.981 81.0779 182.11 80.5549 177.886C80.4745 177.262 80.917 176.699 81.5406 176.618C81.6009 176.598 81.6413 176.598 81.7017 176.598Z" fill="#06163D"/>
<path d="M206.236 189.753C205.673 196.874 198.572 212.726 198.271 213.389L194.77 221.194C194.549 221.697 194.006 221.919 193.523 221.738L173.166 214.073C172.784 213.932 172.522 213.55 172.502 213.128C172.402 211.257 172.884 207.858 175.137 206.107L170.39 204.378C169.968 204.217 169.686 203.774 169.706 203.291C169.726 203.01 170.149 196.472 174.876 195.245C175.017 193.937 175.499 191.503 177.088 189.894C178.014 188.949 179.181 188.466 180.549 188.385C180.549 186.776 181.072 184.724 183.003 183.497C184.894 182.31 191.471 183.497 194.408 184.221C193.744 182.974 192.296 179.655 192.779 177.543C192.92 176.959 206.86 181.948 206.236 189.753Z" fill="white"/>
<path d="M174.016 195.225C174.539 195.225 175.002 195.587 175.123 196.11C175.263 196.714 174.881 197.337 174.278 197.478C171.421 198.142 170.536 201.521 170.255 203.111L198.316 212.686C198.92 212.887 199.221 213.531 199.02 214.134C198.819 214.738 198.175 215.039 197.572 214.838L168.625 204.961C168.142 204.8 167.821 204.338 167.861 203.815C167.881 203.513 168.364 196.533 173.735 195.265C173.835 195.225 173.916 195.225 174.016 195.225Z" fill="#06163D"/>
<path d="M176.407 205.766C176.93 205.766 177.393 206.128 177.513 206.651C177.654 207.254 177.272 207.878 176.668 208.019C173.832 208.682 173.369 211.901 173.289 213.369L194.592 220.913L198.092 213.55C198.353 212.987 199.037 212.746 199.601 213.007C200.164 213.269 200.405 213.953 200.144 214.516L196.201 222.804C195.959 223.327 195.336 223.588 194.793 223.387L171.78 215.24C171.358 215.079 171.056 214.697 171.016 214.235C170.875 211.76 171.74 206.832 176.145 205.806C176.226 205.786 176.326 205.766 176.407 205.766Z" fill="#06163D"/>
<path d="M180.511 187.942C180.632 187.942 180.732 187.942 180.853 187.942C181.477 187.962 181.959 188.505 181.939 189.129C181.919 189.752 181.396 190.255 180.753 190.215C179.525 190.155 178.56 190.497 177.775 191.221C176.528 192.408 176.106 194.339 175.965 195.445L202.699 204.216C203.303 204.417 203.624 205.061 203.423 205.644C203.222 206.247 202.578 206.569 201.995 206.368L174.396 197.316C173.933 197.155 173.611 196.712 173.611 196.23C173.611 196.049 173.692 191.945 176.206 189.571C177.373 188.505 178.801 187.942 180.511 187.942Z" fill="#06163D"/>
<path d="M192.901 176.597C192.942 176.597 193.002 176.597 193.042 176.597C193.666 176.678 194.109 177.241 194.028 177.864C193.505 182.089 196.764 183.98 196.905 184.04C197.408 184.322 197.629 184.945 197.388 185.488C197.166 186.032 196.563 186.293 195.999 186.132C192.399 185.006 185.962 183.618 184.051 184.744C182.401 185.71 182.321 187.48 182.401 188.405L203.965 194.4C204.569 194.561 204.931 195.184 204.75 195.808C204.589 196.411 203.965 196.774 203.342 196.592L181.074 190.417C180.691 190.316 180.39 189.994 180.289 189.612C179.867 188.023 179.866 184.563 182.864 182.793C184.996 181.526 189.381 182.149 192.7 182.893C191.956 181.566 191.453 179.816 191.735 177.583C191.835 176.999 192.318 176.597 192.901 176.597Z" fill="#06163D"/>
<path d="M179.004 72.1421C182.428 51.0428 168.1 31.1625 147.001 27.7382C125.901 24.3139 106.021 38.6423 102.597 59.7416C99.1724 80.841 113.501 100.721 134.6 104.146C155.699 107.57 175.58 93.2414 179.004 72.1421Z" fill="#06163D"/>
<path d="M187.208 11.064C182.199 7.84542 179.645 4.42562 179.263 1.91113H35.1523C37.3249 9.01204 41.3078 16.9579 48.4892 18.547C61.9869 21.5443 62.7312 22.2885 56.7366 36.5506C50.7421 50.7927 42.2733 59.161 63.4754 61.2933C78.4617 62.8019 79.2263 67.2876 79.9706 84.5269C80.7149 101.766 107.71 104.019 117.466 99.5134C127.223 95.0075 117.467 106.252 126.458 108.505C135.45 110.758 137.703 105.508 139.212 101.766C140.72 98.0248 159.448 96.516 163.21 83.0183C166.952 69.5205 181.958 71.0294 176.708 48.5197C171.458 26.0302 178.961 35.0218 184.955 32.7688C190.95 30.5561 197.709 17.8028 187.208 11.064Z" fill="#06163D"/>
<path d="M107.889 1.14709V26.9758C105.676 29.2087 103.986 32.0451 103.182 35.3239L103.041 35.9074C101.713 34.5999 100.024 33.6543 98.0724 33.252C92.7014 32.1456 87.451 35.6057 86.3447 40.9968C85.2383 46.3677 88.6982 51.6179 94.0892 52.7242C95.7991 53.0662 97.4689 52.9656 99.0178 52.4828C96.1814 67.4692 103.765 82.6164 117.706 89.1742C134.884 97.2608 155.362 89.5363 162.906 72.116L167.05 62.5811C173.668 47.3131 164.495 29.8525 148.161 26.634L145.184 26.0506V1.12695H107.889V1.14709Z" fill="white"/>
<path d="M107.891 0C108.515 0 109.038 0.502789 109.038 1.1465V26.9752C109.038 27.277 108.917 27.5586 108.716 27.7799C106.564 29.9524 105.035 32.6681 104.311 35.605L104.17 36.1884C104.069 36.5908 103.767 36.8923 103.385 37.013C102.983 37.1337 102.561 37.013 102.279 36.7314C101.072 35.5445 99.5432 34.7199 97.8937 34.378C95.5803 33.8952 93.2471 34.3579 91.2757 35.6453C89.3043 36.9327 87.9767 38.9242 87.4939 41.2174C87.0312 43.5106 87.4738 45.864 88.7612 47.8354C90.0486 49.8067 92.0399 51.1344 94.3331 51.6172C95.7815 51.9189 97.2902 51.8385 98.6983 51.3959C99.0805 51.2752 99.5031 51.3758 99.7847 51.6373C100.086 51.8988 100.227 52.3012 100.147 52.7035C97.3908 67.2674 104.814 81.8514 118.211 88.1477C126.237 91.9295 135.229 92.2915 143.537 89.1535C151.845 86.0154 158.362 79.8198 161.882 71.6729L166.026 62.1377C169.044 55.1776 168.742 47.3326 165.222 40.634C161.701 33.9153 155.405 29.2282 147.962 27.7799L144.985 27.1965C144.442 27.0959 144.06 26.6334 144.06 26.0902V1.16663C144.06 0.54304 144.563 0.01989 145.206 0.01989C145.85 0.01989 146.353 0.522924 146.353 1.16663V25.1448L148.405 25.5471C156.531 27.1362 163.391 32.2657 167.233 39.5879C171.075 46.9101 171.397 55.4594 168.118 63.0632L163.975 72.5981C160.193 81.3083 153.233 87.9464 144.341 91.3058C135.45 94.6651 125.835 94.2831 117.245 90.2197C103.426 83.7021 95.5401 68.9773 97.6523 53.9708C96.4051 54.1519 95.1177 54.1115 93.8906 53.85C90.9939 53.2465 88.4996 51.5769 86.8702 49.1027C85.2408 46.6284 84.6777 43.6714 85.2611 40.7747C85.8646 37.878 87.5341 35.3836 90.0084 33.7543C92.4826 32.1249 95.4397 31.5618 98.3364 32.1451C99.825 32.4469 101.213 33.0503 102.44 33.8952C103.305 31.1393 104.793 28.6247 106.785 26.4925V1.12636C106.745 0.522885 107.268 0 107.891 0Z" fill="#06163D"/>
<path d="M100.793 40.1719C100.874 40.1719 100.954 40.1719 101.014 40.192C101.638 40.3127 102.02 40.916 101.899 41.5396C101.437 43.7524 100.15 45.6635 98.2586 46.9106C96.3677 48.1578 94.1147 48.6004 91.8818 48.1377C91.2582 48.017 90.8761 47.4134 90.9968 46.7898C91.1175 46.1662 91.7208 45.7842 92.3444 45.9049C93.9738 46.2468 95.6234 45.9251 97.0114 44.9997C98.3994 44.0945 99.3448 42.6863 99.6666 41.077C99.7873 40.554 100.27 40.1719 100.793 40.1719Z" fill="#06163D"/>
<path d="M148.705 62.1787C148.966 62.1787 149.248 62.2793 149.449 62.4604C149.912 62.8828 149.972 63.587 149.55 64.0697L144.058 70.2653C142.59 71.9148 141.926 74.1075 142.208 76.3001C142.489 78.4927 143.716 80.444 145.567 81.651C145.607 81.6711 145.647 81.6913 145.667 81.7315C145.788 81.8321 148.906 84.2458 154.78 81.5302C155.343 81.2687 156.027 81.5101 156.289 82.0935C156.55 82.6567 156.309 83.3407 155.725 83.6022C148.866 86.7805 144.823 83.9642 144.259 83.5216C141.886 81.9526 140.317 79.4181 139.955 76.6019C139.572 73.7655 140.458 70.909 142.348 68.7566L147.84 62.561C148.081 62.2995 148.403 62.1787 148.705 62.1787Z" fill="#06163D"/>
<path d="M121.712 66.6439C122.939 65.0547 124.729 64.6121 125.695 65.6381C126.66 66.664 126.439 68.7761 125.212 70.3652C123.985 71.9544 122.195 72.3969 121.229 71.371C120.264 70.3451 120.465 68.233 121.712 66.6439Z" fill="#06163D"/>
<path d="M149.651 73.1414C150.878 71.5523 152.669 71.1097 153.634 72.1356C154.6 73.1615 154.379 75.2736 153.152 76.8628C151.924 78.452 150.134 78.8945 149.168 77.8686C148.203 76.8226 148.424 74.7105 149.651 73.1414Z" fill="#06163D"/>
<path d="M150.296 58.6393L131.588 58.5389C131.588 58.559 141.646 36.894 150.296 58.6393Z" fill="white"/>
<path d="M141.588 47.8159C141.648 47.8159 141.688 47.8159 141.749 47.8159C145.41 47.9165 148.648 51.4167 151.364 58.2159C151.505 58.5579 151.465 58.9603 151.243 59.2821C151.022 59.5839 150.68 59.785 150.298 59.785L131.59 59.6843C131.208 59.6843 130.846 59.4832 130.645 59.1613C130.443 58.8394 130.403 58.4172 130.564 58.0752C130.745 57.6528 135.392 47.8159 141.588 47.8159ZM148.588 57.4918C146.456 52.7042 144.082 50.1494 141.688 50.089C138.429 49.9683 135.151 54.4542 133.461 57.4112L148.588 57.4918Z" fill="#06163D"/>
<path d="M98.8176 53.8506C96.7055 68.0926 103.907 82.2142 116.922 88.772C117.747 75.4754 110.686 62.5608 98.8176 53.8506Z" fill="#06163D"/>
<path d="M111.19 66.543C111.673 66.543 112.116 66.8447 112.277 67.3275C115.375 77.0234 127.143 78.0291 127.263 78.0492C127.887 78.0894 128.349 78.6325 128.309 79.2762C128.269 79.8998 127.726 80.3826 127.102 80.3223C126.559 80.2821 113.705 79.216 110.124 68.0315C109.943 67.428 110.265 66.7844 110.869 66.6034C110.969 66.5631 111.09 66.543 111.19 66.543Z" fill="#06163D"/>
</svg>
