<svg width="532" height="363" viewBox="0 0 532 363" fill="none" xmlns="http://www.w3.org/2000/svg">
<path d="M310.412 242.452H15.6913C7.90945 242.452 1.59766 236.14 1.59766 228.359V15.6914C1.59766 7.90955 7.90945 1.59766 15.6913 1.59766H310.412C318.194 1.59766 324.505 7.90955 324.505 15.6914V228.359C324.505 236.14 318.194 242.452 310.412 242.452Z" fill="white"/>
<path d="M310.412 244.05H15.6916C7.04684 244.05 0 237.019 0 228.359V15.6917C0 7.04694 7.03086 0 15.6916 0H310.412C319.057 0 326.103 7.03096 326.103 15.6917V228.359C326.103 237.019 319.057 244.05 310.412 244.05ZM15.6916 3.21183C8.80455 3.21183 3.19584 8.82045 3.19584 15.7075V228.375C3.19584 235.262 8.80455 240.87 15.6916 240.87H310.412C317.299 240.87 322.908 235.262 322.908 228.375V15.7075C322.908 8.82045 317.299 3.21183 310.412 3.21183H15.6916Z" fill="#06163D"/>
<path d="M21.3645 25.5673C17.4016 25.5673 14.1738 22.3395 14.1738 18.3767C14.1738 14.4138 17.4016 11.186 21.3645 11.186C25.3273 11.186 28.5551 14.4138 28.5551 18.3767C28.5551 22.3395 25.3433 25.5673 21.3645 25.5673ZM21.3645 14.3819C19.1593 14.3819 17.3697 16.1715 17.3697 18.3767C17.3697 20.5818 19.1593 22.3715 21.3645 22.3715C23.5696 22.3715 25.3593 20.5818 25.3593 18.3767C25.3593 16.1715 23.5696 14.3819 21.3645 14.3819Z" fill="#06163D"/>
<path d="M40.1867 25.5673C36.2239 25.5673 32.9961 22.3395 32.9961 18.3767C32.9961 14.4138 36.2239 11.186 40.1867 11.186C44.1496 11.186 47.3774 14.4138 47.3774 18.3767C47.3774 22.3395 44.1496 25.5673 40.1867 25.5673ZM40.1867 14.3819C37.9816 14.3819 36.1919 16.1715 36.1919 18.3767C36.1919 20.5818 37.9816 22.3715 40.1867 22.3715C42.3919 22.3715 44.1815 20.5818 44.1815 18.3767C44.1815 16.1715 42.3919 14.3819 40.1867 14.3819Z" fill="#06163D"/>
<path d="M59.011 25.5668C55.0481 25.5668 51.8203 22.339 51.8203 18.3762C51.8203 14.4133 55.0481 11.1855 59.011 11.1855C62.9738 11.1855 66.2016 14.4133 66.2016 18.3762C66.1856 22.339 62.9738 25.5668 59.011 25.5668ZM59.011 14.3814C56.8058 14.3814 55.0162 16.1711 55.0162 18.3762C55.0162 20.5813 56.8058 22.371 59.011 22.371C61.2161 22.371 63.0058 20.5813 63.0058 18.3762C63.0058 16.1711 61.2001 14.3814 59.011 14.3814Z" fill="#06163D"/>
<path d="M192.23 362.808L249.468 282.272C265.271 260.045 293.363 250.202 319.569 257.696L417.425 285.66C431.695 289.735 444.111 298.619 452.58 310.795L465.698 362.808C465.714 362.808 192.23 359.26 192.23 362.808Z" fill="#06163D"/>
<path d="M371.425 270.448L351.627 208.033L300.43 224.284L318.262 280.499C310.88 288.377 306.118 297.341 311.104 305.155C323.328 324.282 358.402 305.155 373.806 291.333C389.21 277.511 389.21 277.511 389.21 277.511L371.425 270.448Z" fill="white"/>
<path d="M327.257 314.806C325.978 314.806 324.732 314.726 323.534 314.566C317.509 313.735 312.876 310.859 309.776 306.017C305.142 298.763 307.395 290.054 316.471 280.099L298.91 224.779C298.782 224.38 298.814 223.932 299.022 223.565C299.213 223.181 299.549 222.91 299.964 222.782L351.162 206.531C351.993 206.259 352.903 206.723 353.175 207.569L372.75 269.249L389.847 276.04C390.359 276.248 390.726 276.695 390.822 277.239C390.918 277.782 390.726 278.341 390.311 278.709L374.907 292.531C364.792 301.575 343.763 314.806 327.257 314.806ZM302.441 225.322L319.795 280.003C319.97 280.546 319.826 281.154 319.443 281.585C310.958 290.629 308.625 298.267 312.46 304.292C315.033 308.318 318.9 310.715 323.965 311.402C332.37 312.553 353.063 307.791 372.75 290.15L386.236 278.054L370.832 271.934C370.385 271.758 370.049 271.39 369.905 270.927L350.586 210.046L302.441 225.322Z" fill="#06163D"/>
<path d="M361.402 248.492L348.571 208.033L300.441 223.309L314.183 266.613C331.297 267.987 348.81 261.819 361.402 248.492Z" fill="#06163D"/>
<path d="M395.547 219.394C411.75 194.754 407.708 161.326 384.889 141.336L376.852 134.289C359.003 118.661 331.87 120.467 316.242 138.316L283.565 175.643C267.937 193.492 269.743 220.624 287.592 236.252L293.984 241.845C315.14 260.38 345.325 261.979 367.999 247.773C371.626 251.672 376.772 254.117 382.524 254.117C393.486 254.117 402.354 245.232 402.354 234.286C402.322 228.358 399.702 223.037 395.547 219.394Z" fill="white"/>
<path d="M335.05 258.767C319.886 258.767 304.77 253.446 292.897 243.059L286.521 237.467C277.573 229.621 272.204 218.771 271.421 206.898C270.638 195.026 274.521 183.553 282.351 174.605L315.028 137.277C331.215 118.789 359.419 116.92 377.891 133.107L385.928 140.153C408.603 159.999 413.508 193.748 397.593 219.155C401.62 223.165 403.905 228.614 403.905 234.319C403.905 246.143 394.285 255.763 382.461 255.763C376.98 255.763 371.675 253.622 367.696 249.835C357.677 255.827 346.348 258.767 335.05 258.767ZM348.585 125.277C337.064 125.277 325.607 130.039 317.441 139.37L284.764 176.698C277.493 185.007 273.882 195.649 274.617 206.675C275.352 217.7 280.322 227.783 288.647 235.054L295.039 240.647C315.013 258.144 344.67 260.509 367.153 246.431C367.808 246.032 368.655 246.127 369.166 246.703C372.665 250.474 377.411 252.535 382.509 252.535C392.56 252.535 400.757 244.354 400.757 234.287C400.757 229.046 398.488 224.06 394.525 220.593C393.918 220.065 393.806 219.187 394.237 218.515C410.153 194.307 405.678 161.645 383.867 142.55L375.829 135.504C367.967 128.648 358.252 125.277 348.585 125.277Z" fill="#06163D"/>
<path d="M382.494 214.457C387.719 214.457 392.449 216.486 395.996 219.794L402.308 212.587C417.632 195.074 415.874 168.468 398.361 153.144L376.853 134.321C359.005 118.693 331.872 120.499 316.244 138.348C316.244 138.348 337.497 123.919 374.696 176.234L370.589 184.448C367.761 190.104 367.09 196.608 368.704 202.728L369.743 206.691L361.401 217.541C358.206 221.711 358.909 227.656 362.967 230.963C364.565 221.583 372.683 214.457 382.494 214.457Z" fill="#06163D"/>
<path d="M294.355 187.227C293.061 187.227 291.766 187.116 290.472 186.86C284.975 185.837 280.198 182.737 277.034 178.119C273.87 173.501 272.687 167.941 273.71 162.444C275.819 151.082 286.781 143.572 298.142 145.682C309.487 147.791 317.014 158.752 314.904 170.114C313.882 175.61 310.782 180.388 306.164 183.552C302.632 185.981 298.542 187.227 294.355 187.227ZM294.307 148.542C285.934 148.542 278.456 154.518 276.858 163.035C275.995 167.701 276.986 172.415 279.67 176.33C282.355 180.244 286.397 182.865 291.063 183.744C295.729 184.607 300.443 183.616 304.358 180.932C308.273 178.247 310.894 174.204 311.773 169.538C313.562 159.919 307.187 150.635 297.567 148.845C296.464 148.638 295.378 148.542 294.307 148.542Z" fill="#F5C753"/>
<path d="M331.379 212.875C330.084 212.875 328.79 212.763 327.496 212.507C321.999 211.485 317.221 208.385 314.057 203.767C310.893 199.149 309.711 193.588 310.734 188.091C312.843 176.73 323.805 169.22 335.166 171.329C346.511 173.438 354.037 184.4 351.928 195.761C350.905 201.258 347.805 206.036 343.187 209.2C339.656 211.613 335.565 212.875 331.379 212.875ZM331.331 174.173C322.958 174.173 315.479 180.15 313.881 188.667C313.019 193.333 314.009 198.046 316.694 201.961C319.378 205.876 323.421 208.497 328.087 209.376C332.753 210.238 337.467 209.248 341.382 206.563C345.297 203.879 347.917 199.836 348.796 195.17C350.586 185.551 344.226 176.267 334.591 174.477C333.488 174.269 332.401 174.173 331.331 174.173Z" fill="#F5C753"/>
<path d="M372.215 218.003C371.88 218.003 371.544 217.891 371.257 217.684L348.374 200.282C347.671 199.755 347.527 198.748 348.071 198.045C348.598 197.342 349.605 197.198 350.308 197.742L373.19 215.143C373.893 215.67 374.037 216.677 373.494 217.38C373.174 217.796 372.695 218.003 372.215 218.003Z" fill="#F5C753"/>
<path d="M317.297 179.158C316.929 179.158 316.546 179.03 316.242 178.759L310.969 174.173C310.298 173.598 310.234 172.591 310.809 171.92C311.384 171.249 312.391 171.185 313.062 171.76L318.335 176.346C319.007 176.921 319.07 177.928 318.495 178.599C318.176 178.967 317.744 179.158 317.297 179.158Z" fill="#F5C753"/>
<path d="M337.753 192.981C335.82 195.569 332.912 196.656 331.266 195.426C329.62 194.195 329.86 191.095 331.793 188.522C333.727 185.934 336.635 184.847 338.281 186.078C339.927 187.308 339.687 190.408 337.753 192.981Z" fill="#06163D"/>
<path d="M307.521 172.495C305.587 175.084 302.679 176.17 301.033 174.94C299.388 173.709 299.627 170.609 301.561 168.037C303.494 165.448 306.402 164.362 308.048 165.592C309.694 166.822 309.454 169.906 307.521 172.495Z" fill="#06163D"/>
<path d="M302.535 212.746C297.358 212.746 293.459 209.263 291.845 206.882C291.35 206.147 291.542 205.156 292.277 204.661C293.012 204.165 294.002 204.357 294.498 205.092C294.705 205.396 299.26 211.819 306.354 208.719C307.169 208.368 308.112 208.736 308.464 209.55C308.815 210.365 308.448 211.308 307.633 211.66C305.827 212.427 304.133 212.746 302.535 212.746Z" fill="#06163D"/>
<path d="M353.618 180.516C352.899 180.516 352.244 180.021 352.068 179.286C349.879 170.114 339.093 166.487 338.981 166.455C338.15 166.183 337.687 165.272 337.959 164.441C338.23 163.61 339.125 163.147 339.972 163.419C340.483 163.578 352.579 167.621 355.184 178.551C355.392 179.414 354.865 180.277 354.002 180.468C353.858 180.5 353.73 180.516 353.618 180.516Z" fill="#06163D"/>
<path d="M318.691 156.163C318.084 156.163 317.493 155.812 317.237 155.221C317.077 154.869 313.242 146.576 303.751 145.298C302.872 145.186 302.265 144.371 302.377 143.508C302.488 142.629 303.303 142.022 304.166 142.134C315.464 143.668 319.954 153.495 320.145 153.926C320.497 154.725 320.145 155.684 319.33 156.036C319.139 156.132 318.915 156.163 318.691 156.163Z" fill="#06163D"/>
<path d="M369.023 235.005C368.735 235.005 368.448 234.925 368.176 234.766C367.425 234.302 367.201 233.312 367.665 232.561C367.888 232.209 373.114 223.884 380.896 222.286C384.523 221.535 388.054 222.366 391.426 224.715C392.145 225.226 392.321 226.217 391.825 226.936C391.314 227.655 390.323 227.831 389.604 227.335C386.952 225.482 384.315 224.843 381.551 225.418C375.127 226.728 370.429 234.174 370.381 234.254C370.078 234.75 369.566 235.005 369.023 235.005Z" fill="#06163D"/>
<path d="M400.374 162.747C400.023 162.747 399.655 162.636 399.368 162.38C398.681 161.821 398.585 160.814 399.144 160.127C403.171 155.205 399.032 147.647 398.984 147.567C398.553 146.8 398.825 145.825 399.592 145.394C400.359 144.963 401.333 145.234 401.765 146.001C401.988 146.385 407.022 155.525 401.605 162.14C401.301 162.54 400.838 162.747 400.374 162.747Z" fill="#06163D"/>
<path d="M403.045 160.095C402.63 160.095 402.23 159.936 401.911 159.632C401.288 159.009 401.288 158.002 401.911 157.379C405.171 154.119 408.83 155.126 410.3 156.117C411.035 156.612 411.226 157.603 410.747 158.338C410.268 159.073 409.277 159.264 408.542 158.785C408.174 158.561 406.273 157.539 404.164 159.632C403.86 159.936 403.445 160.095 403.045 160.095Z" fill="#06163D"/>
<path d="M235.659 256.514V193.556C235.659 186.525 231.856 180.006 225.72 176.57C223.578 175.372 221.038 175.388 218.928 176.634C216.803 177.88 215.541 180.07 215.541 182.53V227.895C213.495 226.681 211.115 225.978 208.574 225.978H208.047C203.524 225.978 199.37 228.183 196.781 231.858C195.966 231.698 195.119 231.619 194.257 231.619H193.729C189.015 231.619 184.669 233.999 182.112 237.978C182.08 238.01 182.08 238.058 182.064 238.106C180.946 237.85 179.779 237.691 178.581 237.691C170 237.691 163.033 244.673 163.033 253.238V361.402C163.033 361.849 163.385 362.201 163.832 362.201H230.833C231.28 362.201 231.632 361.849 231.632 361.402V307.935L232.463 307.104C240.133 299.434 244.351 289.255 244.351 278.422V270.72C244.351 264.536 240.804 259.167 235.659 256.514Z" fill="white"/>
<path d="M212.296 327.732C211.881 327.732 211.481 327.573 211.161 327.269C210.538 326.646 210.538 325.639 211.161 325.016L230.768 305.409C237.975 298.203 241.953 288.615 241.953 278.42V270.719C241.953 263.224 235.865 257.136 228.371 257.136H199.88C198.25 257.136 196.732 257.855 195.678 259.086C194.639 260.332 194.192 261.962 194.463 263.56C195.23 267.954 198.698 271.39 203.108 272.093L220.062 274.793C220.829 274.921 221.388 275.56 221.404 276.343C221.42 277.11 220.877 277.797 220.126 277.941C220.078 277.957 215.22 278.964 210.474 282.032C204.29 286.043 201.158 291.523 201.158 298.362C201.158 299.241 200.439 299.96 199.561 299.96C198.682 299.96 197.963 299.241 197.963 298.362C197.963 286.043 206.911 279.811 213.271 276.951L202.613 275.257C196.844 274.346 192.306 269.856 191.315 264.103C190.884 261.578 191.571 258.99 193.233 257.024C194.895 255.059 197.307 253.94 199.88 253.94H228.371C237.623 253.94 245.149 261.467 245.149 270.719V278.42C245.149 289.478 240.851 299.865 233.037 307.678L213.43 327.285C213.111 327.573 212.711 327.732 212.296 327.732Z" fill="#06163D"/>
<path d="M234.86 258.288C233.981 258.288 233.262 257.568 233.262 256.69V193.556C233.262 187.388 229.922 181.667 224.537 178.647C223.147 177.864 221.501 177.88 220.127 178.679C218.753 179.478 217.938 180.916 217.938 182.498V227.895C217.938 228.774 217.219 229.493 216.34 229.493C215.461 229.493 214.742 228.774 214.742 227.895V182.498C214.742 179.766 216.148 177.289 218.513 175.915C220.878 174.524 223.722 174.509 226.103 175.851C232.479 179.446 236.442 186.221 236.442 193.54V256.674C236.458 257.568 235.755 258.288 234.86 258.288Z" fill="#06163D"/>
<path d="M221.551 256.546C220.672 256.546 219.953 255.827 219.953 254.948V239.736C219.953 233.456 214.856 228.359 208.576 228.359H208.049C204.15 228.359 200.571 230.324 198.461 233.616C197.982 234.367 196.991 234.575 196.256 234.095C195.521 233.616 195.297 232.625 195.777 231.89C198.477 227.672 203.063 225.163 208.065 225.163H208.592C216.63 225.163 223.165 231.699 223.165 239.736V254.948C223.149 255.843 222.446 256.546 221.551 256.546Z" fill="#06163D"/>
<path d="M207.233 256.978C206.354 256.978 205.635 256.259 205.635 255.38V245.377C205.635 239.097 200.538 234 194.258 234H193.731C189.832 234 186.252 235.965 184.143 239.257C183.664 240.008 182.673 240.216 181.938 239.737C181.187 239.257 180.979 238.266 181.458 237.531C184.159 233.313 188.745 230.804 193.746 230.804H194.274C202.311 230.804 208.847 237.34 208.847 245.377V255.38C208.831 256.259 208.112 256.978 207.233 256.978Z" fill="#06163D"/>
<path d="M230.832 362.999C229.953 362.999 229.234 362.28 229.234 361.401V310.06C229.234 309.181 229.953 308.462 230.832 308.462C231.711 308.462 232.43 309.181 232.43 310.06V361.401C232.43 362.28 231.711 362.999 230.832 362.999Z" fill="#06163D"/>
<path d="M163.832 362.999C162.953 362.999 162.234 362.28 162.234 361.402V253.238C162.234 244.226 169.569 236.892 178.581 236.892C187.593 236.892 194.928 244.226 194.928 253.238V274.475C194.928 277.511 192.451 279.987 189.415 279.987C183.039 279.987 177.846 274.794 177.846 268.419V258.432C177.846 257.553 178.565 256.834 179.444 256.834C180.323 256.834 181.042 257.553 181.042 258.432V268.419C181.042 273.037 184.797 276.792 189.415 276.792C190.693 276.792 191.732 275.753 191.732 274.475V253.238C191.732 245.984 185.836 240.087 178.581 240.087C171.327 240.087 165.43 245.984 165.43 253.238V361.402C165.43 362.28 164.711 362.999 163.832 362.999Z" fill="#06163D"/>
<path d="M182.928 260.029H175.545C174.666 260.029 173.947 259.31 173.947 258.431C173.947 257.552 174.666 256.833 175.545 256.833H182.928C183.806 256.833 184.525 257.552 184.525 258.431C184.525 259.31 183.806 260.029 182.928 260.029Z" fill="#06163D"/>
<path d="M138.109 60.0498H117.928V80.2157H138.109V60.0498Z" fill="#F5C753"/>
<path d="M178.455 60.0498H158.273V80.2157H178.455V60.0498Z" fill="#F5C753"/>
<path d="M218.803 60.0498H198.621V80.2157H218.803V60.0498Z" fill="#F5C753"/>
<path d="M259.152 60.0498H238.971V80.2157H259.152V60.0498Z" fill="#F5C753"/>
<path d="M57.3982 100.397H37.2324V120.579H57.3982V100.397Z" fill="#F5C753"/>
<path d="M97.7598 100.397H77.5781V120.579H97.7598V100.397Z" fill="#F5C753"/>
<path d="M138.109 100.397H117.928V120.579H138.109V100.397Z" fill="#F5C753"/>
<path d="M178.455 100.397H158.273V120.579H178.455V100.397Z" fill="#F5C753"/>
<path d="M218.803 100.397H198.621V120.579H218.803V100.397Z" fill="#F5C753"/>
<path d="M259.152 100.397H238.971V120.579H259.152V100.397Z" fill="#F5C753"/>
<path d="M57.3982 140.745H37.2324V160.911H57.3982V140.745Z" fill="#F5C753"/>
<path d="M97.7598 140.745H77.5781V160.911H97.7598V140.745Z" fill="#F5C753"/>
<path d="M138.109 140.745H117.928V160.911H138.109V140.745Z" fill="#F5C753"/>
<path d="M178.455 140.745H158.273V160.911H178.455V140.745Z" fill="#F5C753"/>
<path d="M218.803 140.745H198.621V160.911H218.803V140.745Z" fill="#F5C753"/>
<path d="M259.152 140.745H238.971V160.911H259.152V140.745Z" fill="#F5C753"/>
<path d="M57.3982 181.092H37.2324V201.274H57.3982V181.092Z" fill="#F5C753"/>
<path d="M97.7598 181.092H77.5781V201.274H97.7598V181.092Z" fill="#F5C753"/>
<path d="M138.109 181.092H117.928V201.274H138.109V181.092Z" fill="#F5C753"/>
<path d="M530.138 219.791L524.113 197.324L524.066 197.18C533.749 180.226 531.368 158.255 516.891 143.777C499.553 126.44 471.446 126.44 454.109 143.777C436.771 161.115 436.771 189.222 454.109 206.56C468.586 221.037 490.557 223.418 507.511 213.734L507.655 213.782L530.138 219.791Z" fill="white"/>
<path d="M530.139 221.389C529.995 221.389 529.867 221.373 529.724 221.341L507.736 215.444C489.887 225.304 467.469 222.172 452.991 207.695C435.063 189.766 435.063 160.588 452.991 142.643C470.92 124.715 500.114 124.715 518.043 142.643C532.52 157.12 535.652 179.539 525.793 197.388L531.689 219.375C531.833 219.935 531.673 220.51 531.273 220.925C530.954 221.229 530.554 221.389 530.139 221.389ZM485.509 132.401C474.547 132.401 463.585 136.571 455.244 144.912C438.562 161.595 438.562 188.759 455.244 205.442C468.859 219.056 490.015 221.9 506.713 212.345C507.081 212.137 507.512 212.073 507.912 212.185L527.854 217.522L522.549 197.724C522.437 197.324 522.453 196.733 522.661 196.365C532.2 179.667 529.356 158.495 515.758 144.896C507.433 136.571 496.471 132.401 485.509 132.401Z" fill="#06163D"/>
<path d="M466.231 180.634L465.992 180.378C460.669 175.028 460.669 166.362 465.992 161.012C471.315 155.663 479.938 155.663 485.261 161.012L485.5 161.269L485.739 161.012C491.062 155.663 499.684 155.663 505.008 161.012C510.331 166.362 510.331 175.028 505.008 180.378L504.769 180.634L485.5 200L466.231 180.634Z" fill="#06163D"/>
</svg>
